<?xml version="1.0" encoding="UTF-8"?><svg id="Layer_1" xmlns="http://www.w3.org/2000/svg" xmlns:xlink="http://www.w3.org/1999/xlink" viewBox="0 0 160.67 160.67"><defs><style>.cls-1{mask:url(#mask);}.cls-2{fill:url(#linear-gradient-3);}.cls-2,.cls-3{fill-rule:evenodd;}.cls-3{fill:url(#linear-gradient-4);}.cls-4{fill:url(#linear-gradient-5);}.cls-5{fill:url(#linear-gradient-2);}.cls-6{fill:url(#linear-gradient);}.cls-7{mask:url(#mask-1);}</style><linearGradient id="linear-gradient" x1="67.37" y1="152.95" x2="85.81" y2="106.39" gradientTransform="translate(0 204.6) scale(1 -1)" gradientUnits="userSpaceOnUse"><stop offset="0" stop-color="#a7f2ff"/><stop offset="1" stop-color="#7cecff"/></linearGradient><mask id="mask" x="0" y="0" width="160.67" height="160.67" maskUnits="userSpaceOnUse"><g id="mask0_3371_13525"><path class="cls-6" d="M160.13,89.66c.35-3.06.54-6.17.54-9.32C160.67,35.97,124.7,0,80.33,0c-3.15,0-6.26.18-9.32.53-2.39,1.02-4.07,3.39-4.07,6.16v13.47C29.68,21.91,0,52.68,0,90.38s31.47,70.29,70.29,70.29,68.47-29.68,70.21-66.94h13.47c2.76,0,5.14-1.68,6.16-4.07Z"/></g></mask><linearGradient id="linear-gradient-2" x1="56.62" y1="139.75" x2="103.59" y2="52.05" gradientTransform="translate(0 204.6) scale(1 -1)" gradientUnits="userSpaceOnUse"><stop offset="0" stop-color="#0078d4"/><stop offset="1" stop-color="#2064ae"/></linearGradient><linearGradient id="linear-gradient-3" x1="76.25" y1="169.43" x2="165.26" y2="88.71" gradientTransform="translate(0 204.6) scale(1 -1)" gradientUnits="userSpaceOnUse"><stop offset="0" stop-color="#40c4f5"/><stop offset="1" stop-color="#0095e6"/></linearGradient><linearGradient id="linear-gradient-4" x1="76.25" y1="169.44" x2="165.26" y2="88.71" xlink:href="#linear-gradient-3"/><mask id="mask-1" x="66.94" y="0" width="93.72" height="97.07" maskUnits="userSpaceOnUse"><g id="mask1_3371_13525"><path class="cls-3" d="M160.13,89.65c.35-3.06.54-6.17.54-9.32C160.67,35.97,124.7,0,80.33,0c-3.15,0-6.26.18-9.32.53-2.39,1.02-4.07,3.39-4.07,6.16v87.03h87.03c2.76,0,5.14-1.68,6.16-4.07Z"/></g></mask><linearGradient id="linear-gradient-5" x1="77.93" y1="157.13" x2="96.37" y2="110.58" xlink:href="#linear-gradient"/></defs><g class="cls-1"><path class="cls-5" d="M70.29,160.67c38.82,0,70.29-31.47,70.29-70.29S109.11,20.08,70.29,20.08,0,51.55,0,90.38s31.47,70.29,70.29,70.29Z"/><path d="M160.13,93c.35-3.06.54-6.17.54-9.32C160.67,39.31,124.7,3.35,80.33,3.35c-3.15,0-6.26.18-9.32.53-2.39,1.02-4.07,3.39-4.07,6.16v87.03h87.03c2.76,0,5.14-1.68,6.16-4.07Z"/><path d="M160.13,90.29c.35-3.06.54-6.17.54-9.32C160.67,36.61,124.7.64,80.33.64c-3.15,0-6.26.18-9.32.53-2.39,1.02-4.07,3.39-4.07,6.16v87.03h87.03c2.76,0,5.14-1.68,6.16-4.07Z"/><path class="cls-2" d="M160.13,89.65c.35-3.06.53-6.17.53-9.32C160.67,35.97,124.7,0,80.33,0c-3.15,0-6.26.18-9.32.53-2.39,1.02-4.07,3.39-4.07,6.16v87.03h87.03c2.76,0,5.14-1.68,6.16-4.07Z"/><g class="cls-7"><path d="M66.95,53.56h36.82c3.7,0,6.69,3,6.69,6.69v36.82h-43.51v-43.51Z"/><path d="M66.95,50.84h36.82c3.7,0,6.69,3,6.69,6.69v36.82h-43.51v-43.51Z"/><path class="cls-4" d="M66.95,50.21h36.82c3.7,0,6.69,3,6.69,6.69v36.82h-43.51v-43.51Z"/></g></g></svg>