<?xml version="1.0" encoding="UTF-8"?><svg id="Layer_1" xmlns="http://www.w3.org/2000/svg" viewBox="0 0 192 192"><defs><style>.cls-1{fill:none;}.cls-2{fill:#4285f4;}.cls-3{fill:#246fdb;}.cls-4{fill:#8ab4f8;}</style></defs><rect class="cls-1" width="192" height="192"/><polygon class="cls-4" points="111.31 176.79 80.76 147 146.37 80 178 111 111.31 176.79"/><path class="cls-2" d="M111.44,45.08l-30.44-31.08L14.44,79.93c-8.58,8.58-8.58,22.49,0,31.08l65.56,65.99,31-29-49.95-52.53,50.39-50.39Z"/><path class="cls-4" d="M177.56,80.44L111.56,14.44c-8.59-8.59-22.52-8.59-31.11,0s-8.59,22.52,0,31.11l66,66c8.59,8.59,22.52,8.59,31.11,0,8.59-8.59,8.59-22.52,0-31.11Z"/><circle class="cls-3" cx="95.5" cy="162.5" r="21.5"/></svg>